<svg width="45" height="35" viewBox="0 0 45 35" fill="none" xmlns="http://www.w3.org/2000/svg">
<rect y="32.0835" width="45" height="1.5" fill="white"/>
<rect x="1.94434" y="25.2778" width="40.5" height="1.5" fill="white"/>
<rect x="3" y="2" width="37" height="1" fill="white"/>
<rect x="1.94434" y="25.2778" width="22.3611" height="1.5" transform="rotate(-90 1.94434 25.2778)" fill="white"/>
<rect x="39.8613" y="25.2778" width="22.3611" height="1.5" transform="rotate(-90 39.8613 25.2778)" fill="white"/>
<rect x="39" y="4.5" width="1.5" height="1.5" transform="rotate(-90 39 4.5)" fill="white"/>
<rect x="3" y="3.86133" width="1.5" height="1.5" transform="rotate(-90 3 3.86133)" fill="white"/>
<rect x="1" y="28" width="1.5" height="1.5" transform="rotate(-90 1 28)" fill="white"/>
<rect x="41.8335" y="28" width="1.5" height="1.5" transform="rotate(-90 41.8335 28)" fill="white"/>
<rect y="32" width="4.86111" height="1.5" transform="rotate(-90 0 32)" fill="white"/>
<rect x="42.7778" y="32" width="4.86111" height="1.5" transform="rotate(-90 42.7778 32)" fill="white"/>
<rect x="6.75" y="7.75" width="29.5" height="13.5" stroke="white" stroke-width="1.5"/>
<rect x="18.4722" y="31.5" width="1.5" height="7.77778" transform="rotate(-90 18.4722 31.5)" fill="white"/>
</svg>
