<svg width="22" height="35" viewBox="0 0 22 35" fill="none" xmlns="http://www.w3.org/2000/svg">
<path d="M6.36822 2H2.89453V3.5H6.36822V2Z" fill="white"/>
<path d="M9.2629 2H6.36816V3.5H9.2629V2Z" fill="white"/>
<path d="M12.7364 2H9.2627V3.5H12.7364V2Z" fill="white"/>
<path d="M15.6311 2H12.7363V3.5H15.6311V2Z" fill="white"/>
<path d="M19.105 2H15.6313V3.5H19.105V2Z" fill="white"/>
<path d="M12.7369 25.6665H9.26318V28.5832H12.7369V25.6665Z" fill="white"/>
<path d="M6.36822 32.0835H2.89453V33.5835H6.36822V32.0835Z" fill="white"/>
<path d="M9.2629 32.0835H6.36816V33.5835H9.2629V32.0835Z" fill="white"/>
<path d="M12.7364 32.0835H9.2627V33.5835H12.7364V32.0835Z" fill="white"/>
<path d="M15.6311 32.0835H12.7363V33.5835H15.6311V32.0835Z" fill="white"/>
<path d="M19.105 32.0835H15.6313V33.5835H19.105V32.0835Z" fill="white"/>
<path d="M3.5 15.75H2V19.25H3.5V15.75Z" fill="white"/>
<path d="M3.5 12.8335H2V15.7502H3.5V12.8335Z" fill="white"/>
<path d="M3.5 9.3335H2V12.8335H3.5V9.3335Z" fill="white"/>
<path d="M3.5 6.4165H2V9.33317H3.5V6.4165Z" fill="white"/>
<path d="M3.5 28.5835H2V32.0835H3.5V28.5835Z" fill="white"/>
<path d="M3.5 25.6665H2V28.5832H3.5V25.6665Z" fill="white"/>
<path d="M3.5 22.1665H2V25.6665H3.5V22.1665Z" fill="white"/>
<path d="M3.5 19.25H2V22.1667H3.5V19.25Z" fill="white"/>
<path d="M3.5 2.9165H2V6.4165H3.5V2.9165Z" fill="white"/>
<path d="M20.6055 15.75H19.1055V19.25H20.6055V15.75Z" fill="white"/>
<path d="M20.6055 12.8335H19.1055V15.7502H20.6055V12.8335Z" fill="white"/>
<path d="M20.6055 9.3335H19.1055V12.8335H20.6055V9.3335Z" fill="white"/>
<path d="M20.6055 6.4165H19.1055V9.33317H20.6055V6.4165Z" fill="white"/>
<path d="M20.6055 28.5835H19.1055V32.0835H20.6055V28.5835Z" fill="white"/>
<path d="M20.6055 25.6665H19.1055V28.5832H20.6055V25.6665Z" fill="white"/>
<path d="M20.6055 22.1665H19.1055V25.6665H20.6055V22.1665Z" fill="white"/>
<path d="M20.6055 19.25H19.1055V22.1667H20.6055V19.25Z" fill="white"/>
<path d="M20.6055 2.9165H19.1055V6.4165H20.6055V2.9165Z" fill="white"/>
<rect x="7.25" y="6.75" width="8" height="14.5" stroke="white" stroke-width="1.5"/>
</svg>
