<svg width="70" height="70" viewBox="0 0 70 70" fill="none" xmlns="http://www.w3.org/2000/svg">
<rect width="70" height="70" rx="35" fill="#F19629"/>
<path fill-rule="evenodd" clip-rule="evenodd" d="M23.0001 20H32.0006V23.0002H23.0001V20ZM38.0011 20H47.0016V23.0002H38.0011V20ZM50.0014 23.0002H41.001V26.0004H50.0014V23.0002ZM17 50.002V47.0019H29.0006V50.002H17ZM23.0003 44.0017H17V47.0018H23.0003V44.0017ZM47.0017 44.0017H53.002V47.0018H47.0017V44.0017ZM53.0016 47.0019H41.001V50.002H53.0016V47.0019ZM53.0016 44.0009V32.0007H53.0018V26.0004H17V32.0002V32.0007V44.0009H25.7003V44.0016H44.3013V44.0009H53.0016ZM44.0012 38.0013V32.0007H38.001V38.0005H32.0007V32.0007H26.0005V38.0013H44.0012ZM29.0007 23.0002H20.0002V26.0004H29.0007V23.0002Z" fill="#1E0000"/>
</svg>
