<svg width="70" height="70" viewBox="0 0 70 70" fill="none" xmlns="http://www.w3.org/2000/svg">
<rect width="70" height="70" fill="#DD4040"/>
<rect x="24.3925" y="17" width="22.3317" height="3.85029" fill="#1E0000"/>
<rect x="17" y="46.262" width="20.7916" height="3.85029" transform="rotate(-90 17 46.262)" fill="#1E0000"/>
<rect x="49.0345" y="46.262" width="20.7916" height="3.85029" transform="rotate(-90 49.0345 46.262)" fill="#1E0000"/>
<rect x="24.3925" y="50.1128" width="22.3317" height="3.85029" fill="#1E0000"/>
<rect x="18.2323" y="23.1602" width="3.85029" height="3.85029" fill="#1E0000"/>
<rect x="48.2645" y="23.1602" width="3.85029" height="3.85029" fill="#1E0000"/>
<rect x="19.7721" y="20.8501" width="3.85029" height="3.85029" fill="#1E0000"/>
<rect x="19.7721" y="47.0322" width="3.85029" height="3.85029" fill="#1E0000"/>
<rect x="46.7243" y="47.0322" width="3.85029" height="3.85029" fill="#1E0000"/>
<rect x="48.2645" y="44.7222" width="3.85029" height="3.85029" fill="#1E0000"/>
<rect x="41.8739" y="23.9304" width="3" height="3" fill="#1E0000"/>
<rect x="39.0238" y="27.7805" width="3.85029" height="3.85029" fill="#1E0000"/>
<rect x="28.2429" y="27.7805" width="3.85029" height="3.85029" fill="#1E0000"/>
<rect x="28.2429" y="38.5618" width="3.85029" height="3.85029" fill="#1E0000"/>
<rect x="39.0238" y="38.5618" width="3.85029" height="3.85029" fill="#1E0000"/>
<rect x="31.323" y="26.2407" width="9.2407" height="3.85029" fill="#1E0000"/>
<rect x="26.3179" y="39.717" width="9.2407" height="3.85029" transform="rotate(-90 26.3179 39.717)" fill="#1E0000"/>
<rect x="40.5637" y="39.717" width="9.2407" height="3.85029" transform="rotate(-90 40.5637 39.717)" fill="#1E0000"/>
<rect x="31.323" y="40.8721" width="9.2407" height="3.85029" fill="#1E0000"/>
<rect x="22.0823" y="48.572" width="3.85029" height="3.85029" fill="#1E0000"/>
<rect x="33.6332" y="50.1289" width="3.85029" height="3.85029" fill="#1E0000"/>
<rect x="44.4141" y="48.572" width="3.85029" height="3.85029" fill="#1E0000"/>
<rect x="18.2323" y="44.7222" width="3.85029" height="3.85029" fill="#1E0000"/>
<rect x="46.7243" y="20.8501" width="3.85029" height="3.85029" fill="#1E0000"/>
<rect x="22.0823" y="18.5398" width="3.85029" height="3.85029" fill="#1E0000"/>
<rect x="45.1841" y="18.5398" width="3.85029" height="3.85029" fill="#1E0000"/>
</svg>
