<svg width="70" height="70" viewBox="0 0 70 70" fill="none" xmlns="http://www.w3.org/2000/svg">
<rect width="70" height="70" rx="35" fill="#44914D"/>
<path fill-rule="evenodd" clip-rule="evenodd" d="M46.5288 20H40.0567V21.6179H38.4388V23.2358H36.8206V24.8538H53.0008V23.2358H48.1469V21.6179H46.5288V20ZM35.2027 24.8543H49.7649V26.4722H53.0009V28.0902H49.7649L49.7649 29.708V31.326H20.2361V29.7081H18.6179V28.0902V28.0901V26.4723V26.4722V24.8543H22.2584V26.4722H25.0899V28.0901H28.326V29.708H35.2027V28.0902V28.0901V26.4723V26.4722V24.8543ZM17 31.7305H18.618V32.9444H21.854V31.3267H49.7648V32.9447H49.7647V34.5623V34.5625V36.1803H48.1469V37.7981H48.147V39.4161H46.5289V41.034H46.5287V42.6519H44.9108V44.2698H25.0901V42.6519H21.854V41.034H20.2361V39.416H23.4722V37.7982H20.2361V36.1803H18.6179V34.5625V34.5623V34.562H17V31.7305ZM18.6179 23.2358H20.2359V24.8538H18.6179V23.2358ZM26.708 44.2703H43.2927V45.8883H41.6748V47.5062H39.6521V49.1241H38.4389V50.742H23.4722V49.1241H18.6179V47.5061H20.2361V45.8882H26.708V44.2703Z" fill="#1E0000"/>
</svg>
