<svg width="15" height="15" viewBox="0 0 15 15" fill="none" xmlns="http://www.w3.org/2000/svg">
<rect x="4.80078" y="15" width="6.60027" height="1.20005" transform="rotate(-90 4.80078 15)" fill="white"/>
<rect x="1.19922" width="11.4005" height="1.20005" fill="white"/>
<rect x="10.8008" y="7.7998" width="4.20017" height="1.20005" fill="white"/>
<rect x="10.8008" y="10.2002" width="4.20017" height="1.20005" fill="white"/>
<rect x="10.8008" y="12.5996" width="4.20017" height="1.20005" fill="white"/>
<rect x="1.00781" y="0.599609" width="9.01893" height="1.20005" transform="rotate(57.2036 1.00781 0.599609)" fill="white"/>
<rect width="8.46467" height="1.20005" transform="matrix(-0.541655 0.840601 0.840601 0.541655 12.3867 1.2002)" fill="white"/>
<rect x="7.80078" y="12.5996" width="4.20017" height="1.20005" transform="rotate(-90 7.80078 12.5996)" fill="white"/>
<rect x="6" y="14.4004" width="1.20005" height="1.20005" transform="rotate(-90 6 14.4004)" fill="white"/>
<rect x="7.19922" y="13.7998" width="1.20005" height="1.20005" transform="rotate(-90 7.19922 13.7998)" fill="white"/>
<rect x="5.25" y="9.75" width="1.575" height="0.75" transform="rotate(-90 5.25 9.75)" fill="white"/>
<rect x="7.80078" y="9.75" width="1.575" height="0.75" transform="rotate(-90 7.80078 9.75)" fill="white"/>
</svg>
