<svg width="20" height="20" viewBox="0 0 20 20" fill="none" xmlns="http://www.w3.org/2000/svg">
<rect x="4.85742" width="7.42857" height="2.28571" fill="white"/>
<rect y="12.8572" width="7.42857" height="2.28571" transform="rotate(-90 0 12.8572)" fill="white"/>
<rect x="15.1426" y="12.8572" width="7.42857" height="2.28571" transform="rotate(-90 15.1426 12.8572)" fill="white"/>
<rect x="12.8574" y="4.57153" width="2.28571" height="2.28571" transform="rotate(-90 12.8574 4.57153)" fill="white"/>
<rect x="12.8574" y="15.4285" width="2.28571" height="2.28571" transform="rotate(-90 12.8574 15.4285)" fill="white"/>
<rect x="15.1426" y="17.7141" width="2.28571" height="2.28571" transform="rotate(-90 15.1426 17.7141)" fill="white"/>
<rect x="17.4277" y="20" width="2.28571" height="2.28571" transform="rotate(-90 17.4277 20)" fill="white"/>
<rect x="2" y="4.57129" width="2.28571" height="2.28571" transform="rotate(-90 2 4.57129)" fill="white"/>
<rect x="2" y="15.4287" width="2.28571" height="2.28571" transform="rotate(-90 2 15.4287)" fill="white"/>
<rect x="4.85742" y="14.8572" width="7.42857" height="2.28571" fill="white"/>
</svg>
