<svg width="23" height="20" viewBox="0 0 23 20" fill="none" xmlns="http://www.w3.org/2000/svg">
<rect y="2.10522" width="2.80702" height="1.75439" fill="white"/>
<rect x="4.91211" y="4.91235" width="1.75439" height="1.75439" fill="white"/>
<rect x="2.80664" y="2.80688" width="1.75439" height="1.75439" fill="white"/>
<rect x="7.01758" y="7.01758" width="2.10526" height="1.75439" fill="white"/>
<rect x="9.12305" y="9.1228" width="2.10526" height="1.75439" fill="white"/>
<rect x="11.2285" y="11.228" width="2.10526" height="1.75439" fill="white"/>
<rect x="13.334" y="13.3333" width="2.10526" height="1.75439" fill="white"/>
<rect x="18.9473" y="14.0352" width="2.10526" height="1.75439" fill="white"/>
<rect x="18.9473" y="1.40356" width="2.10526" height="1.75439" fill="white"/>
<rect x="18.9473" y="16.842" width="2.10526" height="1.75439" fill="white"/>
<rect x="18.9473" y="4.21045" width="2.10526" height="1.75439" fill="white"/>
<rect x="16.8418" y="12.6316" width="2.10526" height="1.75439" fill="white"/>
<rect x="16.8418" width="2.10526" height="1.75439" fill="white"/>
<rect x="16.8418" y="18.2456" width="2.10526" height="1.75439" fill="white"/>
<rect x="16.8418" y="5.61401" width="2.10526" height="1.75439" fill="white"/>
<rect x="15.4375" y="15.4387" width="7.01754" height="1.75439" fill="white"/>
<rect x="15.4375" y="2.80688" width="7.01754" height="1.75439" fill="white"/>
<rect x="11.2285" y="7.01758" width="2.10526" height="1.75439" fill="white"/>
<rect x="13.334" y="4.91235" width="2.10526" height="1.75439" fill="white"/>
<rect x="4.91211" y="13.3333" width="1.75439" height="1.75439" fill="white"/>
<rect x="2.80664" y="15.4387" width="1.75439" height="1.75439" fill="white"/>
<rect x="7.01758" y="11.228" width="1.75439" height="1.75439" fill="white"/>
<rect y="16.1404" width="2.80702" height="1.75439" fill="white"/>
</svg>
