<svg width="25" height="25" viewBox="0 0 25 25" fill="none" xmlns="http://www.w3.org/2000/svg">
<path d="M9.37501 21.0938H4.68751C4.4803 21.0938 4.28159 21.0115 4.13508 20.865C3.98856 20.7185 3.90625 20.5197 3.90625 20.3125V15.9473C3.9059 15.8459 3.92555 15.7453 3.9641 15.6515C4.00264 15.5577 4.05931 15.4723 4.13086 15.4004L15.8496 3.68168C15.9223 3.60786 16.009 3.54924 16.1045 3.50923C16.2001 3.46921 16.3027 3.44861 16.4063 3.44861C16.5099 3.44861 16.6124 3.46921 16.708 3.50923C16.8036 3.54924 16.8902 3.60786 16.9629 3.68168L21.3184 8.03715C21.3922 8.10984 21.4508 8.19649 21.4908 8.29205C21.5308 8.38762 21.5514 8.49018 21.5514 8.59379C21.5514 8.69739 21.5308 8.79996 21.4908 8.89552C21.4508 8.99108 21.3922 9.07773 21.3184 9.15043L9.37501 21.0938Z" stroke="white" stroke-width="1.5" stroke-linecap="round" stroke-linejoin="round"/>
<path d="M21.0938 21.0938H9.375" stroke="white" stroke-width="1.5" stroke-linecap="round" stroke-linejoin="round"/>
<path d="M13.2812 6.25L18.75 11.7188" stroke="white" stroke-width="1.5" stroke-linecap="round" stroke-linejoin="round"/>
</svg>
