<svg width="35" height="35" viewBox="0 0 35 35" fill="none" xmlns="http://www.w3.org/2000/svg">
<path d="M3.55469 34.7266H30.8984V9.02344V6.83594H24.3359V0.273438H22.1484H3.55469V15.5859H5.74219V2.46094H22.1484V9.02344H28.7109V32.5391H3.55469V34.7266Z" fill="#DD4040"/>
<path d="M6.69922 25.7031C8.42188 25.7031 9.84375 24.2812 9.84375 22.5586C9.84375 20.8359 8.42188 19.4141 6.69922 19.4141H3.55469V28.7109H5.74219V25.7031H6.69922ZM5.74219 21.6016H6.69922C7.21875 21.6016 7.65625 22.0391 7.65625 22.5586C7.65625 23.0781 7.21875 23.5156 6.69922 23.5156H5.74219V21.6016Z" fill="#DD4040"/>
<path d="M26.5234 21.6016V19.4141H21.0547V28.7109H23.2422V25.7031H24.8828V23.5156H23.2422V21.6016H26.5234Z" fill="#DD4040"/>
<path d="M18.8672 24.0625C18.8672 21.4922 16.7891 19.4141 14.2188 19.4141H12.0312V28.7109H14.2188C16.7891 28.7109 18.8672 26.6328 18.8672 24.0625ZM14.2188 26.5234V21.6016C15.5859 21.6016 16.6797 22.6953 16.6797 24.0625C16.6797 25.4297 15.5859 26.5234 14.2188 26.5234Z" fill="#DD4040"/>
</svg>
