<svg width="15" height="15" viewBox="0 0 15 15" fill="none" xmlns="http://www.w3.org/2000/svg">
<path d="M7.5 10.3125C9.0533 10.3125 10.3125 9.0533 10.3125 7.5C10.3125 5.9467 9.0533 4.6875 7.5 4.6875C5.9467 4.6875 4.6875 5.9467 4.6875 7.5C4.6875 9.0533 5.9467 10.3125 7.5 10.3125Z" stroke="#846A6A" stroke-linecap="round" stroke-linejoin="round"/>
<path d="M11.5665 4.72851C11.7075 4.93047 11.831 5.14414 11.9356 5.36719L13.4532 6.21094C13.6427 7.05965 13.6447 7.93949 13.459 8.78906L11.9356 9.63281C11.831 9.85585 11.7075 10.0695 11.5665 10.2715L11.5958 12.0117C10.9526 12.5978 10.1914 13.0393 9.36334 13.3066L7.8692 12.4102C7.62342 12.4277 7.3767 12.4277 7.13092 12.4102L5.64264 13.3008C4.81196 13.0383 4.04824 12.5985 3.40436 12.0117L3.43366 10.2773C3.29378 10.0726 3.17034 9.85707 3.06452 9.63281L1.54694 8.78906C1.35744 7.94035 1.35545 7.0605 1.54108 6.21094L3.06452 5.36719C3.16909 5.14414 3.29259 4.93047 3.43366 4.72851L3.40436 2.98828C4.04751 2.40221 4.80872 1.96066 5.63678 1.69336L7.13092 2.58984C7.3767 2.57226 7.62342 2.57226 7.8692 2.58984L9.35748 1.69922C10.1882 1.96166 10.9519 2.4015 11.5958 2.98828L11.5665 4.72851Z" stroke="#846A6A" stroke-linecap="round" stroke-linejoin="round"/>
</svg>
