<svg width="25" height="25" viewBox="0 0 25 25" fill="none" xmlns="http://www.w3.org/2000/svg">
<path d="M12.5 17.1875C15.0888 17.1875 17.1875 15.0888 17.1875 12.5C17.1875 9.91117 15.0888 7.8125 12.5 7.8125C9.91117 7.8125 7.8125 9.91117 7.8125 12.5C7.8125 15.0888 9.91117 17.1875 12.5 17.1875Z" stroke="white" stroke-width="1.5" stroke-linecap="round" stroke-linejoin="round"/>
<path d="M19.2774 7.88086C19.5125 8.21745 19.7184 8.57357 19.8927 8.94531L22.422 10.3516C22.7378 11.7661 22.7411 13.2325 22.4317 14.6484L19.8927 16.0547C19.7184 16.4264 19.5125 16.7825 19.2774 17.1191L19.3263 20.0195C18.2543 20.9963 16.9857 21.7322 15.6056 22.1777L13.1153 20.6836C12.7057 20.7129 12.2945 20.7129 11.8849 20.6836L9.4044 22.168C8.01993 21.7306 6.74707 20.9975 5.67393 20.0195L5.72276 17.1289C5.48963 16.7876 5.2839 16.4284 5.10753 16.0547L2.57823 14.6484C2.26241 13.2339 2.25908 11.7675 2.56846 10.3516L5.10753 8.94531C5.28182 8.57357 5.48766 8.21745 5.72276 7.88086L5.67393 4.98047C6.74586 4.00368 8.01454 3.26777 9.39463 2.82227L11.8849 4.31641C12.2945 4.28711 12.7057 4.28711 13.1153 4.31641L15.5958 2.83203C16.9803 3.26943 18.2531 4.00249 19.3263 4.98047L19.2774 7.88086Z" stroke="white" stroke-width="1.5" stroke-linecap="round" stroke-linejoin="round"/>
</svg>
