<svg width="436" height="38" viewBox="0 0 436 38" fill="none" xmlns="http://www.w3.org/2000/svg">
<rect width="410" height="7.06968" transform="matrix(1 0 0 -1 0 20.8308)" fill="#F9DA0A"/>
<rect width="231" height="7.06968" transform="matrix(1 0 0 -1 30 13.1294)" fill="#5EF101"/>
<rect width="199" height="7.06968" transform="matrix(1 0 0 -1 110 7.0697)" fill="#F9DA0A"/>
<rect width="410" height="3.02986" transform="matrix(1 0 0 -1 22 33.9602)" fill="#B13945"/>
<rect width="73" height="7.06968" transform="matrix(1 0 0 -1 219 27.9005)" fill="#5EF101"/>
<rect width="73" height="7.06968" transform="matrix(1 0 0 -1 292 27.9005)" fill="#0095E4"/>
<rect width="73" height="7.06968" transform="matrix(1 0 0 -1 117 29.2886)" fill="#6F00ED"/>
<rect width="410" height="3.02986" transform="matrix(1 0 0 -1 26 38)" fill="#B13945"/>
</svg>
