<svg width="388" height="382" viewBox="0 0 388 382" fill="none" xmlns="http://www.w3.org/2000/svg">
<path d="M200.035 123.355L195.178 129.816C195.178 136.816 195.825 151.623 198.415 154.854" stroke="#6A1A1A" stroke-width="2" stroke-linecap="round" stroke-linejoin="round"/>
<path d="M250.213 106.392C247.515 107.2 241.633 110.915 239.691 119.315C235.644 120.123 225.933 127.392 222.696 133.046C220.106 137.569 218.919 144.622 218.649 147.584C211.635 149.738 196.797 154.691 193.56 157.276C190.323 159.86 189.513 161.583 189.513 162.122L189.513 171.814" stroke="#6A1A1A" stroke-width="2" stroke-linecap="round" stroke-linejoin="round"/>
<path d="M256.687 103.97C258.462 103.97 260.718 104.028 263.161 104.171M263.161 104.171C270.744 104.615 280.136 105.884 282.584 108.816C280.642 109.462 278.538 109.624 277.729 109.624C275.031 111.509 268.017 114.47 261.543 111.24C259.924 112.047 258.305 113.663 257.496 111.24C259.924 108.816 259.924 105.179 263.161 104.171Z" stroke="#6A1A1A" stroke-width="2" stroke-linecap="round" stroke-linejoin="round"/>
<path d="M250.212 100.74L250.212 106.393C251.561 105.855 254.906 105.263 257.496 107.201" stroke="#6A1A1A" stroke-width="2" stroke-linecap="round" stroke-linejoin="round"/>
<path d="M259.924 102.355C261.543 101.278 265.427 99.2855 268.017 99.9317C270.607 100.578 276.11 101.816 278.538 102.355" stroke="#6A1A1A" stroke-width="2" stroke-linecap="round" stroke-linejoin="round"/>
<path d="M230.789 182.314C233.486 183.661 239.043 186.353 239.691 186.353C240.338 186.353 250.212 186.353 255.069 186.353L262.353 182.314" stroke="#6A1A1A" stroke-width="2" stroke-linecap="round" stroke-linejoin="round"/>
<path d="M242.119 192.006C245.087 191.467 251.507 190.713 253.449 192.006" stroke="#6A1A1A" stroke-width="2" stroke-linecap="round" stroke-linejoin="round"/>
<path d="M250.213 159.699C249.133 163.199 247.946 169.876 251.83 168.584" stroke="#6A1A1A" stroke-width="2" stroke-linecap="round" stroke-linejoin="round"/>
<path d="M218.649 179.083C219.458 178.007 221.886 175.853 225.123 175.853C228.36 175.853 231.867 173.699 233.216 172.623C235.374 171.007 240.5 168.1 243.737 169.392C247.784 171.007 246.974 171.815 250.212 171.815C252.802 171.815 255.068 170.738 255.877 170.199C256.417 169.93 258.467 169.876 262.352 171.815C266.236 173.753 268.287 175.853 268.826 176.661C269.366 176.93 270.445 177.145 270.445 175.853" stroke="#6A1A1A" stroke-width="2" stroke-linecap="round" stroke-linejoin="round"/>
<path d="M269.636 176.661C269.366 177.199 268.179 177.953 265.589 176.661C262.999 175.368 261.813 175.045 261.543 175.045C260.734 174.776 258.63 174.399 256.687 175.045C254.259 175.853 250.213 177.469 246.166 175.045C242.929 173.107 238.882 173.699 237.263 174.237C235.375 175.314 230.627 177.145 226.742 175.853" stroke="#6A1A1A" stroke-width="2" stroke-linecap="round" stroke-linejoin="round"/>
<path d="M246.976 142.738L247.784 146.776" stroke="#6A1A1A" stroke-width="2" stroke-linecap="round" stroke-linejoin="round"/>
<path d="M242.12 151.623L239.692 150.008C241.041 149.738 244.225 149.362 246.167 150.008C248.109 150.654 249.134 151.354 249.404 151.623" stroke="#6A1A1A" stroke-width="2" stroke-linecap="round" stroke-linejoin="round"/>
<path d="M250.214 153.238L255.878 153.238L259.925 150.007L262.353 150.007" stroke="#6A1A1A" stroke-width="2" stroke-linecap="round" stroke-linejoin="round"/>
<path d="M265.591 142.739C266.13 144.623 266.886 148.715 265.591 150.008C263.971 151.623 261.543 152.431 259.924 152.431" stroke="#6A1A1A" stroke-width="2" stroke-linecap="round" stroke-linejoin="round"/>
<path d="M259.115 116.086C259.924 122.816 261.704 136.439 262.352 137.085" stroke="#6A1A1A" stroke-width="2" stroke-linecap="round" stroke-linejoin="round"/>
<path d="M259.924 114.47C261.273 115.816 264.618 118.67 267.208 119.316" stroke="#6A1A1A" stroke-width="2" stroke-linecap="round" stroke-linejoin="round"/>
<path d="M236.453 140.316C235.104 142.739 232.891 148.069 234.834 150.008C237.262 152.431 242.928 154.046 243.737 154.046" stroke="#6A1A1A" stroke-width="2" stroke-linecap="round" stroke-linejoin="round"/>
<path d="M259.114 87.8166C257.82 89.1087 258.036 95.8932 258.306 99.1239C266.076 98.4773 275.032 91.855 278.539 88.6246C279.348 87.2786 281.776 84.9095 285.013 86.2018C288.251 87.4941 287.981 94.2785 287.441 97.5091C288.251 94.8169 289.869 88.3017 289.869 83.7786C286.632 78.125 276.92 77.3173 275.301 78.9326C275.301 81.3556 270.445 87.8166 268.018 88.6246C265.59 89.4327 261.542 88.6243 259.114 87.8166Z" stroke="#6A1A1A" stroke-width="2" stroke-linecap="round" stroke-linejoin="round"/>
<path d="M255.068 78.1252C254.259 83.7789 252.963 95.7323 254.258 98.3169C255.553 100.902 256.956 102.086 257.496 102.355" stroke="#6A1A1A" stroke-width="2" stroke-linecap="round" stroke-linejoin="round"/>
<path d="M152.285 148.393C155.522 147.585 162.482 143.87 164.424 135.47C166.852 124.97 166.043 99.125 145.81 87.01C142.572 85.3947 138.526 84.587 136.098 87.01M174.136 11.8972L197.606 28.0505C200.574 29.6659 207.966 32.5735 213.793 31.2812" stroke="#6A1A1A" stroke-width="2" stroke-linecap="round" stroke-linejoin="round"/>
<path d="M170.899 14.32L197.606 32.0887C200.034 33.704 206.995 36.4501 215.412 34.5117M263.971 57.1263L251.831 61.9723M243.738 72.472C243.199 75.7026 243.091 83.6178 246.975 89.433C246.975 93.3098 246.975 95.3558 246.975 95.8943" stroke="#6A1A1A" stroke-width="2" stroke-linecap="round" stroke-linejoin="round"/>
<path d="M124.767 100.74C126.386 96.9708 131.727 90.5633 140.144 95.0862C150.665 100.74 158.759 126.586 152.284 141.931C150.342 143.87 148.238 145.431 147.428 145.97L144.191 147.585" stroke="#6A1A1A" stroke-width="2" stroke-linecap="round" stroke-linejoin="round"/>
<path d="M189.512 5.43512C199.494 13.2426 221.238 34.6726 228.36 57.9334C238.072 59.5488 243.737 60.3568 251.83 66.8181" stroke="#6A1A1A" stroke-width="2" stroke-linecap="round" stroke-linejoin="round"/>
<path d="M218.649 2.20435C231.328 7.58875 255.715 34.3494 251.83 98.3166C251.83 99.6092 247.514 103.701 245.356 105.586L237.263 105.586" stroke="#6A1A1A" stroke-width="2" stroke-linecap="round" stroke-linejoin="round"/>
<path d="M238.074 106.394C235.484 105.748 229.98 99.1248 227.552 95.8941C225.933 95.0864 220.753 92.3401 212.984 87.8171C202.624 83.2941 191.402 94.5476 187.086 100.74C190.593 94.2785 199.388 81.1946 206.51 80.5484C213.632 79.9023 224.584 87.2787 229.17 91.0477L243.738 104.778M191.132 110.432C191.941 114.47 194.854 122.709 200.035 123.355C206.51 124.162 227.552 120.124 230.789 114.47" stroke="#6A1A1A" stroke-width="2" stroke-linecap="round" stroke-linejoin="round"/>
<path d="M243.737 82.9712C233.486 77.0483 208.613 65.041 191.131 64.3949C184.657 70.0486 175.754 91.0479 176.563 103.163C180.61 107.201 188.703 110.432 191.131 110.432" stroke="#6A1A1A" stroke-width="2" stroke-linecap="round" stroke-linejoin="round"/>
<path d="M191.131 110.432C191.516 110.047 192.066 109.563 192.75 109.038M192.75 109.038C194.942 107.358 198.514 105.27 202.462 104.778C208.936 103.97 221.076 100.74 225.932 104.778C229.817 108.009 230.788 109.893 230.788 110.432H227.551C226.742 110.97 223.99 112.047 219.458 112.047C213.792 112.047 208.936 112.047 206.509 110.432C204.081 108.816 198.415 107.645 192.75 109.038ZM206.509 99.9321C210.825 98.8552 220.267 97.0245 223.504 98.3168C226.742 99.609 228.63 101.009 229.17 101.548" stroke="#6A1A1A" stroke-width="2" stroke-linecap="round" stroke-linejoin="round"/>
<path d="M157.14 146.777C157.14 149.2 157.464 155.339 158.759 160.508C160.053 165.677 171.708 177.2 177.373 182.315M177.373 182.315C187.894 191.468 211.203 210.583 220.267 213.814M177.373 182.315C181.42 175.853 189.513 172.623 194.369 170.2C194.369 172.138 200.304 179.084 203.271 182.315L208.127 187.161C208.127 187.699 208.127 189.422 208.127 192.007C208.127 194.591 215.681 202.776 219.458 206.545M220.267 213.814C221.077 214.621 222.695 217.044 225.123 217.852C227.066 218.498 241.04 219.198 247.784 219.467C249.673 220.006 254.097 220.275 256.687 217.044C259.277 213.814 261.003 209.775 261.543 208.16V205.737C260.733 207.083 258.629 209.129 256.687 206.545C254.744 203.96 254.259 201.699 254.259 200.891C251.831 199.007 244.709 195.884 235.644 198.468C232.407 202.506 231.598 204.929 226.742 205.737C222.857 206.383 220.807 205.468 220.267 204.929V213.814Z" stroke="#6A1A1A" stroke-width="2" stroke-linecap="round" stroke-linejoin="round"/>
<path d="M222.695 306.695C226.741 323.386 233.863 361.131 229.979 378.577" stroke="#6A1A1A" stroke-width="2" stroke-linecap="round" stroke-linejoin="round"/>
<path d="M170.898 176.66C172.786 189.045 177.696 216.559 182.228 227.543C186.761 238.528 184.117 251.504 182.228 256.619C180.34 261.735 176.563 272.288 176.563 273.58" stroke="#6A1A1A" stroke-width="2" stroke-linecap="round" stroke-linejoin="round"/>
<path d="M326.289 377.769C325.749 378.039 325.156 375.669 327.098 364.039C329.526 349.501 323.051 336.578 323.051 323.656C323.051 310.733 334.382 294.58 337.619 291.349C340.209 288.765 338.698 285.965 337.619 284.888C336.27 283.003 332.925 278.749 330.335 276.811C327.745 274.873 325.479 276.003 324.67 276.811C321.703 278.965 314.634 283.595 310.102 284.888C304.437 286.503 304.437 286.503 295.534 281.657C286.632 276.811 260.733 273.58 251.022 273.58C241.31 273.58 230.788 277.619 228.36 278.426C225.932 279.234 225.123 281.657 222.695 286.503C220.753 290.38 217.03 288.657 215.411 287.311C214.872 286.772 212.821 284.726 208.937 280.849C185.466 268.734 145.809 272.773 126.386 274.388C106.962 276.003 110.199 270.35 103.724 267.119C98.5448 264.535 96.1708 266.042 95.6312 267.119C93.7428 268.196 88.8328 271.642 84.3006 276.811C79.7683 281.98 83.4912 283.811 85.9192 284.08C95.6311 284.349 113.922 293.287 109.39 326.886C102.268 358.547 98.329 376.154 97.2499 381" stroke="#6A1A1A" stroke-width="2" stroke-linecap="round" stroke-linejoin="round"/>
<path d="M58.4022 378.577C57.0533 369.155 58.564 346.594 75.398 331.733C96.4404 313.157 98.0589 322.849 110.199 310.734" stroke="#6A1A1A" stroke-width="2" stroke-linecap="round" stroke-linejoin="round"/>
<path d="M323.86 317.195C325.209 320.425 331.306 326.725 344.903 326.079C349.759 327.694 355.424 340.617 355.424 356.77C355.424 369.693 353.266 376.693 352.187 378.577" stroke="#6A1A1A" stroke-width="2" stroke-linecap="round" stroke-linejoin="round"/>
<path d="M344.093 266.312L348.949 271.965C344.633 273.042 335.676 276.327 334.381 280.85" stroke="#6A1A1A" stroke-width="2" stroke-linecap="round" stroke-linejoin="round"/>
<path d="M8.2241 377.77C4.44725 365.924 -1.97339 337.064 2.55883 316.388C7.09105 295.711 26.5686 277.081 35.7409 270.351C40.0573 266.582 50.3087 259.205 56.7833 259.851C56.7833 261.789 58.9415 262.812 60.0206 263.081C68.1139 262.812 85.919 263.404 92.3936 267.927" stroke="#6A1A1A" stroke-width="2" stroke-linecap="round" stroke-linejoin="round"/>
<path d="M58.4019 261.466L74.5884 251.774C76.4768 250.158 80.5774 246.443 81.8723 244.505C83.1672 242.566 86.1887 239.389 87.5376 238.043L97.2495 228.351C108.58 220.275 133.669 202.829 143.381 197.66C150.665 192.006 157.949 174.238 151.474 148.392C148.884 147.746 145.539 147.585 144.19 147.585C136.367 142.2 121.529 125.293 124.767 100.74C124.767 94.9249 132.32 88.6251 136.097 86.2021C135.558 72.4718 137.23 42.4266 148.237 32.0885C159.244 21.7503 166.312 16.4736 168.47 15.1275C175.754 9.47382 195.987 -1.18738 218.648 1.39716C219.943 2.04329 221.885 2.74325 222.695 3.01246C232.407 3.82013 255.068 9.47379 268.017 25.6271C275.139 34.673 276.92 39.6267 276.92 40.9728C277.999 48.2418 282.099 65.8489 289.869 78.1254C291.811 83.2945 289.059 93.7403 287.441 98.3171C286.362 102.086 284.527 113.017 285.822 126.585C285.822 134.339 283.124 148.662 281.775 154.854L278.538 171.007V173.43L275.301 179.084L265.589 193.622C264.78 196.583 262.837 202.991 261.542 204.929C263.485 206.867 267.747 210.044 269.636 211.39C278.808 217.852 301.199 232.551 317.386 239.659C333.572 246.766 342.475 260.389 344.903 266.312H348.14C350.028 269.004 356.233 275.034 365.945 277.619C375.657 280.85 382.401 297.272 384.56 305.08C386.718 318.81 389.416 349.986 382.941 364.847C379.056 371.954 375.927 375.885 374.848 376.962" stroke="#6A1A1A" stroke-width="2" stroke-linecap="round" stroke-linejoin="round"/>
</svg>
