<svg width="440" height="410" viewBox="0 0 440 410" fill="none" xmlns="http://www.w3.org/2000/svg">
<mask id="mask0_208_12" style="mask-type:alpha" maskUnits="userSpaceOnUse" x="0" y="0" width="440" height="410">
<rect width="440" height="410" fill="#C4C4C4"/>
</mask>
<g mask="url(#mask0_208_12)">
<path d="M129.578 361.04L128.578 368.04L118.078 409.04" stroke="#6A1A1A" stroke-width="1.5" stroke-linecap="round"/>
<path d="M144.078 302.04C150.411 301.04 166.778 299.14 181.578 299.54C196.378 299.94 212.078 301.373 218.078 302.04" stroke="#6A1A1A" stroke-width="1.5" stroke-linecap="round"/>
<path d="M261.578 304.04C267.911 303.04 272.278 300.64 287.078 301.04C301.878 301.44 328.078 309.04 331.578 311.54" stroke="#6A1A1A" stroke-width="1.5" stroke-linecap="round"/>
<path d="M249.578 334.54C253.411 346.707 260.278 378.54 257.078 408.54" stroke="#6A1A1A" stroke-width="1.5" stroke-linecap="round"/>
<path d="M23.5781 342.54L22.8623 342.316L22.8558 342.337L22.8505 342.358L23.5781 342.54ZM26.0781 334.54L25.4701 334.101L25.3987 334.2L25.3623 334.316L26.0781 334.54ZM42.0781 313.54L42.6085 314.07H42.6085L42.0781 313.54ZM88.5781 284.04L88.929 284.703L88.5781 284.04ZM102.078 272.04L101.498 271.565L101.474 271.593L101.454 271.624L102.078 272.04ZM123.578 250.54L123.976 251.176L123.578 250.54ZM143.578 238.04L143.976 238.676L143.985 238.67L143.994 238.664L143.578 238.04ZM166.078 223.04L165.743 222.369L165.701 222.39L165.662 222.416L166.078 223.04ZM178.578 191.54L177.829 191.582L177.83 191.586L178.578 191.54ZM176.578 167.54L177.318 167.417L177.299 167.305L177.249 167.205L176.578 167.54ZM165.078 161.54L164.424 161.908L164.444 161.943L164.468 161.976L165.078 161.54ZM160.078 152.04L160.79 151.803L160.752 151.69L160.682 151.595L160.078 152.04ZM151.578 137.04L152.302 136.843L151.578 137.04ZM150.078 123.54L149.341 123.678L150.078 123.54ZM153.078 110.04L153.659 110.515L153.664 110.508L153.67 110.5L153.078 110.04ZM164.078 106.54L163.407 106.875L164.799 106.334L164.078 106.54ZM162.078 78.54L162.821 78.6461L162.078 78.54ZM166.078 58.04L165.394 57.7322L165.375 57.7748L165.361 57.8195L166.078 58.04ZM196.078 27.04L195.709 26.3871L195.697 26.394L195.685 26.4013L196.078 27.04ZM243.078 15.04L243.042 15.7892L243.043 15.7892L243.078 15.04ZM279.578 25.04L279.964 24.3969L279.578 25.04ZM301.078 46.54L300.413 46.8861L300.431 46.9222L300.454 46.9561L301.078 46.54ZM309.078 70.54L308.357 70.7461L308.364 70.7715L308.373 70.7963L309.078 70.54ZM313.078 81.54L312.373 81.7963L312.377 81.8075L312.382 81.8186L313.078 81.54ZM319.078 96.54L319.815 96.4018L319.802 96.3297L319.774 96.2615L319.078 96.54ZM315.078 133.54L315.826 133.598L315.829 133.554L315.828 133.511L315.078 133.54ZM316.078 145.04H316.828V144.93L316.797 144.825L316.078 145.04ZM312.578 166.54L311.844 166.389L311.841 166.401L311.839 166.414L312.578 166.54ZM308.578 190.04L309.316 190.174L309.318 190.166L308.578 190.04ZM307.578 195.54L308.274 195.819L308.303 195.748L308.316 195.674L307.578 195.54ZM306.578 198.04L307.196 198.465L307.243 198.396L307.274 198.319L306.578 198.04ZM301.078 206.04L300.46 205.615L300.454 205.624L301.078 206.04ZM295.078 215.04L294.454 214.624L294.406 214.696L294.376 214.777L295.078 215.04ZM289.078 230.04L288.338 229.917L288.298 230.157L288.407 230.375L289.078 230.04ZM290.078 232.04L289.407 232.375L289.475 232.511L289.59 232.609L290.078 232.04ZM300.578 241.04L300.09 241.609L300.146 241.658L300.211 241.694L300.578 241.04ZM321.078 252.54L320.711 253.194L320.719 253.198L321.078 252.54ZM343.078 264.54L343.442 263.884L343.437 263.882L343.078 264.54ZM363.078 278.04L362.427 278.412L362.464 278.477L362.514 278.534L363.078 278.04ZM369.578 285.04L370.261 284.73L370.205 284.606L370.108 284.51L369.578 285.04ZM383.578 301.04L384.108 300.51L384.034 300.435L383.942 300.384L383.578 301.04ZM389.078 304.54L389.494 303.916L389.455 303.89L389.414 303.869L389.078 304.54ZM390.578 305.54L390.162 306.164L390.241 306.217L390.33 306.248L390.578 305.54ZM400.578 309.04L401.108 308.51L400.987 308.389L400.826 308.332L400.578 309.04ZM403.078 311.54L403.645 311.049L403.627 311.029L403.608 311.01L403.078 311.54ZM415.078 332.54L415.815 332.398L415.798 332.311L415.761 332.23L415.078 332.54ZM417.578 359.54L418.324 359.621L418.328 359.581V359.54H417.578ZM415.078 382.54L415.801 382.741L415.817 382.682L415.824 382.621L415.078 382.54ZM410.078 400.54L410.734 400.904L410.777 400.827L410.801 400.741L410.078 400.54ZM407.578 405.04L408.178 405.49L408.209 405.449L408.234 405.404L407.578 405.04ZM181.828 160.04C181.828 159.626 181.492 159.29 181.078 159.29C180.664 159.29 180.328 159.626 180.328 160.04H181.828ZM27.8001 409.337C26.3159 404.06 23.2263 389.155 22.8279 372.023L21.3283 372.057C21.7299 389.325 24.8404 404.354 26.3561 409.743L27.8001 409.337ZM22.8279 372.023C22.4284 354.842 23.6639 345.289 24.3057 342.722L22.8505 342.358C22.159 345.124 20.9279 354.838 21.3283 372.057L22.8279 372.023ZM24.294 342.764L26.794 334.764L25.3623 334.316L22.8623 342.316L24.294 342.764ZM26.6861 334.979C28.8509 331.982 32.2479 327.336 35.4026 323.141C38.5769 318.919 41.4554 315.223 42.6085 314.07L41.5478 313.01C40.3009 314.257 37.346 318.061 34.2037 322.239C31.0417 326.444 27.6387 331.098 25.4701 334.101L26.6861 334.979ZM42.6085 314.07C45.6883 310.99 52.5568 301.639 65.4135 295.211L64.7427 293.869C51.5994 300.441 44.4679 310.09 41.5478 313.01L42.6085 314.07ZM65.4135 295.211C71.8875 291.974 75.6156 290.483 78.7894 289.238C81.9797 287.987 84.6387 286.974 88.929 284.703L88.2272 283.377C84.0175 285.606 81.4265 286.593 78.2418 287.842C75.0407 289.097 71.2688 290.606 64.7427 293.869L65.4135 295.211ZM88.929 284.703C95.8674 281.03 100.987 275.029 102.702 272.456L101.454 271.624C99.8363 274.051 94.8888 279.85 88.2272 283.377L88.929 284.703ZM102.659 272.515C104.898 269.778 108.66 265.418 112.657 261.246C116.67 257.058 120.863 253.121 123.976 251.176L123.181 249.904C119.893 251.959 115.586 256.022 111.574 260.209C107.546 264.412 103.758 268.802 101.498 271.565L102.659 272.515ZM123.976 251.176L143.976 238.676L143.181 237.404L123.181 249.904L123.976 251.176ZM143.994 238.664L166.494 223.664L165.662 222.416L143.162 237.416L143.994 238.664ZM166.414 223.711C171.391 221.222 180.542 211.345 179.327 191.494L177.83 191.586C179.014 210.935 170.099 220.191 165.743 222.369L166.414 223.711ZM179.327 191.498C178.527 177.094 177.658 169.46 177.318 167.417L175.838 167.663C176.164 169.62 177.029 177.186 177.829 191.582L179.327 191.498ZM177.249 167.205L176.749 166.205L175.407 166.875L175.907 167.875L177.249 167.205ZM175.841 165.828C174.144 166.394 169.492 166.428 165.688 161.104L164.468 161.976C168.665 167.852 174.012 168.019 176.315 167.252L175.841 165.828ZM165.732 161.172C163.935 157.978 162.731 155.736 161.957 154.234C161.171 152.708 160.851 151.987 160.79 151.803L159.367 152.277C159.472 152.593 159.852 153.422 160.624 154.921C161.408 156.444 162.621 158.702 164.424 161.908L165.732 161.172ZM160.682 151.595C159.527 150.028 157.716 147.398 156.046 144.617C154.365 141.816 152.872 138.935 152.302 136.843L150.855 137.237C151.484 139.546 153.074 142.58 154.76 145.389C156.457 148.216 158.296 150.885 159.474 152.485L160.682 151.595ZM152.302 136.843C151.576 134.182 151.578 132.881 151.578 131.228C151.578 129.51 151.576 127.461 150.815 123.402L149.341 123.678C150.08 127.619 150.078 129.57 150.078 131.228C150.078 132.949 150.08 134.398 150.855 137.237L152.302 136.843ZM150.815 123.402C149.665 117.265 152.266 112.217 153.659 110.515L152.498 109.565C150.89 111.53 148.092 117.015 149.341 123.678L150.815 123.402ZM153.67 110.5C154.218 109.796 155.222 108.72 156.415 107.828C157.627 106.922 158.923 106.29 160.078 106.29V104.79C158.433 104.79 156.813 105.658 155.517 106.627C154.201 107.61 153.104 108.785 152.486 109.58L153.67 110.5ZM160.078 106.29C161.424 106.29 162.298 106.451 162.83 106.627C163.096 106.715 163.264 106.803 163.361 106.867C163.471 106.941 163.448 106.956 163.407 106.875L164.749 106.205C164.625 105.957 164.41 105.764 164.193 105.619C163.961 105.465 163.665 105.323 163.301 105.203C162.575 104.963 161.533 104.79 160.078 104.79V106.29ZM164.799 106.334C163.483 101.728 161.24 89.7069 162.821 78.6461L161.336 78.4339C159.716 89.7731 162.006 102.018 163.357 106.746L164.799 106.334ZM162.821 78.6461C164.417 67.4678 166.144 60.3763 166.795 58.2606L165.361 57.8195C164.679 60.037 162.939 67.2122 161.336 78.4339L162.821 78.6461ZM166.762 58.3478C168.227 55.0918 173.07 46.8167 180.578 40.0989L179.578 38.9811C171.886 45.8633 166.929 54.3216 165.394 57.7322L166.762 58.3478ZM180.578 40.0989C188.151 33.3229 194.349 28.9846 196.471 27.6788L195.685 26.4013C193.474 27.7621 187.205 32.1571 179.578 38.9811L180.578 40.0989ZM196.447 27.6929C200.243 25.5473 210.343 20.6477 220.253 18.2693L219.903 16.8107C209.813 19.2323 199.58 24.1994 195.709 26.3871L196.447 27.6929ZM220.253 18.2693C230.176 15.8879 239.604 15.6254 243.042 15.7892L243.114 14.2909C239.552 14.1213 229.981 14.3921 219.903 16.8107L220.253 18.2693ZM243.043 15.7892C250.163 16.1203 267.349 18.5774 279.192 25.6832L279.964 24.3969C267.807 17.1027 250.327 14.6264 243.113 14.2908L243.043 15.7892ZM279.192 25.6832C291.06 32.8036 298.302 42.8274 300.413 46.8861L301.744 46.194C299.521 41.9194 292.097 31.6764 279.964 24.3969L279.192 25.6832ZM300.454 46.9561C301.769 48.9277 304.568 53.9255 305.34 58.1742L306.816 57.9059C305.989 53.3546 303.054 48.1524 301.702 46.124L300.454 46.9561ZM305.34 58.1742C306.147 62.6104 307.688 68.4047 308.357 70.7461L309.799 70.334C309.135 68.0087 307.609 62.2697 306.816 57.9059L305.34 58.1742ZM308.373 70.7963L312.373 81.7963L313.783 81.2837L309.783 70.2837L308.373 70.7963ZM312.382 81.8186L318.382 96.8186L319.774 96.2615L313.774 81.2615L312.382 81.8186ZM318.341 96.6783C318.824 99.2527 319.215 106.04 316.876 112.277L318.28 112.803C320.742 106.24 320.333 99.1607 319.815 96.4018L318.341 96.6783ZM316.876 112.277C315.64 115.572 314.966 119.818 314.619 123.749C314.27 127.69 314.244 131.372 314.329 133.569L315.828 133.511C315.745 131.375 315.77 127.756 316.113 123.881C316.457 119.995 317.116 115.908 318.28 112.803L316.876 112.277ZM314.33 133.483C314.161 135.684 314.121 141.125 315.36 145.256L316.797 144.825C315.636 140.955 315.662 135.73 315.826 133.598L314.33 133.483ZM315.328 145.04C315.328 146.762 314.759 150.65 314.027 154.887C313.299 159.094 312.426 163.561 311.844 166.389L313.313 166.691C313.897 163.852 314.774 159.369 315.505 155.143C316.23 150.947 316.828 146.918 316.828 145.04H315.328ZM311.839 166.414L307.839 189.914L309.318 190.166L313.318 166.666L311.839 166.414ZM307.84 189.906L306.84 195.406L308.316 195.674L309.316 190.174L307.84 189.906ZM306.882 195.261L305.882 197.761L307.274 198.319L308.274 195.819L306.882 195.261ZM305.96 197.615L300.46 205.615L301.696 206.465L307.196 198.465L305.96 197.615ZM300.454 205.624L294.454 214.624L295.702 215.456L301.702 206.456L300.454 205.624ZM294.376 214.777C293.882 216.093 292.493 219.534 290.907 222.705L292.249 223.375C293.864 220.146 295.274 216.654 295.78 215.303L294.376 214.777ZM290.907 222.705C289.276 225.968 288.518 228.839 288.338 229.917L289.818 230.163C289.972 229.241 290.68 226.513 292.249 223.375L290.907 222.705ZM288.407 230.375L289.407 232.375L290.749 231.705L289.749 229.705L288.407 230.375ZM289.59 232.609L300.09 241.609L301.066 240.471L290.566 231.471L289.59 232.609ZM300.211 241.694L320.711 253.194L321.445 251.886L300.945 240.386L300.211 241.694ZM320.719 253.198L342.719 265.198L343.437 263.882L321.437 251.882L320.719 253.198ZM342.714 265.196C345.704 266.857 350.29 269.524 354.322 272.121C356.339 273.42 358.207 274.695 359.665 275.813C360.395 276.373 361.012 276.886 361.491 277.338C361.98 277.8 362.283 278.16 362.427 278.412L363.729 277.668C363.473 277.22 363.039 276.737 362.52 276.248C361.991 275.748 361.33 275.2 360.578 274.623C359.074 273.469 357.167 272.169 355.134 270.859C351.067 268.24 346.452 265.556 343.442 263.884L342.714 265.196ZM362.514 278.534C365.326 281.748 368.037 284.56 369.048 285.57L370.108 284.51C369.119 283.52 366.43 280.732 363.643 277.546L362.514 278.534ZM368.895 285.35C369.754 287.239 371.485 290.29 373.914 293.379C376.34 296.464 379.495 299.63 383.214 301.696L383.942 300.384C380.461 298.45 377.45 295.449 375.093 292.451C372.738 289.456 371.069 286.508 370.261 284.73L368.895 285.35ZM383.048 301.57C383.717 302.24 384.828 302.988 385.889 303.631C386.967 304.285 388.06 304.87 388.743 305.211L389.414 303.869C388.763 303.544 387.706 302.978 386.667 302.349C385.611 301.709 384.639 301.04 384.108 300.51L383.048 301.57ZM388.662 305.164L390.162 306.164L390.994 304.916L389.494 303.916L388.662 305.164ZM390.33 306.248L400.33 309.748L400.826 308.332L390.826 304.832L390.33 306.248ZM400.048 309.57L402.548 312.07L403.608 311.01L401.108 308.51L400.048 309.57ZM402.511 312.031C403.583 313.268 405.27 315.327 406.835 317.47C408.416 319.634 409.816 321.81 410.376 323.303L411.78 322.777C411.14 321.07 409.624 318.746 408.046 316.585C406.453 314.403 404.74 312.312 403.645 311.049L402.511 312.031ZM410.376 323.303C411.585 326.528 413.56 331.013 414.395 332.85L415.761 332.23C414.929 330.4 412.971 325.952 411.78 322.777L410.376 323.303ZM414.342 332.682C414.757 334.843 415.381 338.26 415.9 341.484C416.424 344.737 416.828 347.713 416.828 349.04H418.328C418.328 347.567 417.899 344.46 417.381 341.246C416.859 338.003 416.232 334.571 415.815 332.398L414.342 332.682ZM416.828 349.04V359.54H418.328V349.04H416.828ZM416.833 359.459L414.333 382.459L415.824 382.621L418.324 359.621L416.833 359.459ZM414.355 382.339L409.355 400.339L410.801 400.741L415.801 382.741L414.355 382.339ZM409.423 400.176L406.923 404.676L408.234 405.404L410.734 400.904L409.423 400.176ZM406.978 404.59L403.978 408.59L405.178 409.49L408.178 405.49L406.978 404.59ZM176.633 167.045C177.473 166.121 178.734 164.684 179.788 163.372C180.314 162.718 180.798 162.083 181.154 161.554C181.331 161.29 181.486 161.038 181.6 160.813C181.696 160.625 181.828 160.336 181.828 160.04H180.328C180.328 159.944 180.356 159.951 180.263 160.134C180.188 160.282 180.07 160.477 179.909 160.717C179.588 161.195 179.134 161.791 178.619 162.433C177.589 163.713 176.35 165.126 175.523 166.036L176.633 167.045Z" fill="#6A1A1A"/>
<path d="M287.078 136.54C287.745 143.04 289.378 156.14 290.578 156.54" stroke="#6A1A1A" stroke-width="1.5" stroke-linecap="round"/>
<path d="M263.078 161.04C261.578 164.04 259.478 170.44 263.078 172.04C266.678 173.64 269.578 174.707 270.578 175.04" stroke="#6A1A1A" stroke-width="1.5" stroke-linecap="round"/>
<path d="M294.078 163.04V169.04L292.578 172.04L291.078 173.04H287.578" stroke="#6A1A1A" stroke-width="1.5" stroke-linecap="round"/>
<path d="M174.578 154.04C175.245 152.207 176.278 147.74 175.078 144.54C173.578 140.54 168.578 143.54 170.578 137.04C171.078 135.04 171.578 134.04 170.578 132.04C169.778 130.44 168.911 128.373 168.578 127.54C167.411 125.373 165.178 119.74 165.578 114.54" stroke="#6A1A1A" stroke-width="1.5" stroke-linecap="round"/>
<path d="M162.578 115.04C161.411 115.873 158.778 118.54 157.578 122.54C156.078 127.54 154.578 124.54 155.078 131.54C155.478 137.14 156.245 139.54 156.578 140.04L159.078 143.04L165.578 147.54L167.578 149.54" stroke="#6A1A1A" stroke-width="1.5" stroke-linecap="round"/>
<path d="M182.078 157.04L183.078 179.54L187.578 188.54L196.078 197.54C199.578 200.707 207.278 207.74 210.078 210.54C212.878 213.34 216.911 216.373 218.578 217.54L232.078 225.54L247.578 236.04C248.745 237.373 252.378 240.04 257.578 240.04C262.778 240.04 270.078 240.707 273.078 241.04C276.078 241.207 282.678 240.44 285.078 236.04C287.478 231.64 288.745 229.873 289.078 229.54" stroke="#6A1A1A" stroke-width="1.5"/>
<path d="M355.578 358.04C357.411 364.707 360.378 384.14 357.578 408.54" stroke="#6A1A1A" stroke-width="1.5" stroke-linecap="round"/>
<path d="M364.078 362.54L358.578 375.04" stroke="#6A1A1A" stroke-width="1.5" stroke-linecap="round"/>
</g>
</svg>
